PWHSGothicMono-Bold.ufo
<glyph name="comma" format="2">
  <advance width="600"/>
  <unicode hex="002C"/>
  <outline>
    <contour>
      <point x="248" y="124" type="line"/>
      <point x="248" y="0" type="line"/>
      <point x="300" y="0" type="line"/>
      <point x="300" y="-16" type="line" smooth="yes"/>
      <point x="300" y="-69"/>
      <point x="274" y="-98"/>
      <point x="230" y="-98" type="curve"/>
      <point x="230" y="-146" type="line"/>
      <point x="327" y="-146"/>
      <point x="353" y="-72.0"/>
      <point x="353" y="-16" type="curve" smooth="yes"/>
      <point x="353" y="124" type="line"/>
    </contour>
  </outline>
</glyph>
<glyph name="hyphen" format="2">
  <advance width="600"/>
  <unicode hex="002D"/>
  <outline>
    <contour>
      <point x="177" y="257" type="line"/>
      <point x="423" y="257" type="line"/>
      <point x="423" y="335" type="line"/>
      <point x="177" y="335" type="line"/>
    </contour>
  </outline>
</glyph>
<glyph name="A" format="2">
  <advance width="600"/>
  <unicode hex="0041"/>
  <outline>
    <contour>
      <point x="444" y="246" type="line"/>
      <point x="162" y="246" type="line"/>
      <point x="162" y="100" type="line"/>
      <point x="444" y="100" type="line"/>
    </contour>
    <contour>
      <point x="197" y="0" type="line"/>
      <point x="323" y="570" type="line"/>
      <point x="282" y="570" type="line"/>
      <point x="392" y="0" type="line"/>
      <point x="575" y="0" type="line"/>
      <point x="394" y="700" type="line"/>
      <point x="216" y="700" type="line"/>
      <point x="25" y="0" type="line"/>
    </contour>
  </outline>
</glyph>
<glyph name="B" format="2">
  <advance width="600"/>
  <unicode hex="0042"/>
  <outline>
    <contour>
      <point x="85" y="700" type="line"/>
      <point x="85" y="0" type="line"/>
      <point x="180" y="0" type="line"/>
      <point x="180" y="700" type="line"/>
    </contour>
    <contour>
      <point x="351" y="0" type="line" smooth="yes"/>
      <point x="486.0" y="0.0"/>
      <point x="570" y="89"/>
      <point x="570" y="201" type="curve" smooth="yes"/>
      <point x="570" y="296"/>
      <point x="510" y="350"/>
      <point x="449" y="374" type="curve"/>
      <point x="449" y="356" type="line"/>
      <point x="505" y="374"/>
      <point x="555" y="428"/>
      <point x="555" y="511" type="curve" smooth="yes"/>
      <point x="555" y="621"/>
      <point x="475.0" y="700.0"/>
      <point x="351" y="700" type="curve" smooth="yes"/>
      <point x="124" y="700" type="line"/>
      <point x="124" y="614" type="line"/>
      <point x="344" y="614" type="line" smooth="yes"/>
      <point x="417.0" y="614.0"/>
      <point x="463" y="574"/>
      <point x="463" y="508" type="curve" smooth="yes"/>
      <point x="463" y="442"/>
      <point x="421.0" y="402.0"/>
      <point x="348" y="402" type="curve" smooth="yes"/>
      <point x="123" y="402" type="line"/>
      <point x="123" y="316" type="line"/>
      <point x="345" y="316" type="line" smooth="yes"/>
      <point x="416.0" y="316.0"/>
      <point x="473" y="279"/>
      <point x="473" y="202" type="curve" smooth="yes"/>
      <point x="473" y="127"/>
      <point x="420.0" y="86.0"/>
      <point x="345" y="86" type="curve" smooth="yes"/>
      <point x="124" y="86" type="line"/>
      <point x="124" y="0" type="line"/>
    </contour>
  </outline>
</glyph>
<glyph name="D" format="2">
  <advance width="600"/>
  <unicode hex="0044"/>
  <outline>
    <contour>
      <point x="123" y="86" type="line"/>
      <point x="123" y="0" type="line"/>
      <point x="301" y="0" type="line" smooth="yes"/>
      <point x="475.0" y="0.0"/>
      <point x="567" y="149"/>
      <point x="567" y="350" type="curve" smooth="yes"/>
      <point x="567" y="551"/>
      <point x="475.0" y="700.0"/>
      <point x="301" y="700" type="curve" smooth="yes"/>
      <point x="122" y="700" type="line"/>
      <point x="122" y="614" type="line"/>
      <point x="294" y="614" type="line" smooth="yes"/>
      <point x="415.0" y="614.0"/>
      <point x="470" y="512"/>
      <point x="470" y="350" type="curve" smooth="yes"/>
      <point x="470" y="188"/>
      <point x="415.0" y="86.0"/>
      <point x="294" y="86" type="curve" smooth="yes"/>
    </contour>
    <contour>
      <point x="85" y="0" type="line"/>
      <point x="180" y="0" type="line"/>
      <point x="180" y="700" type="line"/>
      <point x="85" y="700" type="line"/>
    </contour>
  </outline>
</glyph>
<glyph name="G" format="2">
  <advance width="600"/>
  <unicode hex="0047"/>
  <outline>
    <contour>
      <point x="480" y="144" type="curve"/>
      <point x="454" y="144" type="line"/>
      <point x="454" y="0" type="line"/>
      <point x="536" y="0" type="line"/>
      <point x="536" y="378" type="line"/>
      <point x="340" y="378" type="line"/>
      <point x="340" y="301" type="line"/>
      <point x="505" y="301" type="line"/>
      <point x="456" y="311" type="line"/>
      <point x="456" y="290" type="line" smooth="yes"/>
      <point x="456" y="161"/>
      <point x="387" y="73"/>
      <point x="286" y="73" type="curve" smooth="yes"/>
      <point x="187.0" y="73"/>
      <point x="127" y="185"/>
      <point x="127" y="350" type="curve" smooth="yes"/>
      <point x="127" y="515"/>
      <point x="189" y="626"/>
      <point x="300" y="626" type="curve" smooth="yes"/>
      <point x="377" y="626"/>
      <point x="414" y="579"/>
      <point x="439" y="481" type="curve"/>
      <point x="521" y="504" type="line"/>
      <point x="490" y="632"/>
      <point x="419" y="711"/>
      <point x="300" y="711" type="curve" smooth="yes"/>
      <point x="141" y="711"/>
      <point x="30" y="564"/>
      <point x="30" y="350" type="curve" smooth="yes"/>
      <point x="30" y="136"/>
      <point x="139" y="-12"/>
      <point x="286" y="-12" type="curve" smooth="yes"/>
      <point x="380.0" y="-12.0"/>
      <point x="428" y="50"/>
    </contour>
  </outline>
</glyph>
<glyph name="K" format="2">
  <advance width="600"/>
  <unicode hex="004B"/>
  <outline>
    <contour>
      <point x="166" y="303" type="line"/>
      <point x="166" y="172" type="line"/>
      <point x="292" y="345" type="line"/>
      <point x="314" y="371" type="line"/>
      <point x="565" y="700" type="line"/>
      <point x="461" y="700" type="line"/>
    </contour>
    <contour>
      <point x="111" y="700" type="line"/>
      <point x="111" y="0" type="line"/>
      <point x="206" y="0" type="line"/>
      <point x="206" y="700" type="line"/>
    </contour>
    <contour>
      <point x="249" y="355" type="line"/>
      <point x="496" y="0" type="line"/>
      <point x="601" y="0" type="line"/>
      <point x="315" y="422" type="line"/>
    </contour>
  </outline>
</glyph>
<glyph name="L" format="2">
  <advance width="600"/>
  <unicode hex="004C"/>
  <outline>
    <contour>
      <point x="105" y="700" type="line"/>
      <point x="200" y="700" type="line"/>
      <point x="200" y="0" type="line"/>
      <point x="105" y="0" type="line"/>
    </contour>
    <contour>
      <point x="144" y="0" type="line"/>
      <point x="144" y="86" type="line"/>
      <point x="553" y="86" type="line"/>
      <point x="553" y="0" type="line"/>
    </contour>
  </outline>
</glyph>
<glyph name="M" format="2">
  <advance width="600"/>
  <unicode hex="004D"/>
  <outline>
    <contour>
      <point x="127" y="617" type="line"/>
      <point x="272" y="205" type="line"/>
      <point x="327" y="205" type="line"/>
      <point x="471" y="616" type="line"/>
      <point x="463" y="616" type="line"/>
      <point x="463" y="0" type="line"/>
      <point x="550" y="0" type="line"/>
      <point x="550" y="700" type="line"/>
      <point x="421" y="700" type="line"/>
      <point x="290" y="322" type="line"/>
      <point x="310" y="322" type="line"/>
      <point x="181" y="700" type="line"/>
      <point x="50" y="700" type="line"/>
      <point x="50" y="0" type="line"/>
      <point x="136" y="0" type="line"/>
      <point x="136" y="617" type="line"/>
    </contour>
  </outline>
</glyph>
<glyph name="N" format="2">
  <advance width="600"/>
  <unicode hex="004E"/>
  <outline>
    <contour>
      <point x="495" y="40" type="line"/>
      <point x="212" y="700" type="line"/>
      <point x="77" y="700" type="line"/>
      <point x="77" y="0" type="line"/>
      <point x="166" y="0" type="line"/>
      <point x="166" y="657" type="line"/>
      <point x="136" y="657" type="line"/>
      <point x="420" y="0" type="line"/>
      <point x="523" y="0" type="line"/>
      <point x="523" y="700" type="line"/>
      <point x="434" y="700" type="line"/>
      <point x="434" y="40" type="line"/>
    </contour>
  </outline>
</glyph>
<glyph name="O" format="2">
  <advance width="600"/>
  <unicode hex="004F"/>
  <outline>
    <contour>
      <point x="300" y="711" type="curve" smooth="yes"/>
      <point x="142" y="711"/>
      <point x="34" y="564"/>
      <point x="34" y="350" type="curve" smooth="yes"/>
      <point x="34" y="136"/>
      <point x="142" y="-12"/>
      <point x="300" y="-12" type="curve" smooth="yes"/>
      <point x="458" y="-12"/>
      <point x="566" y="136"/>
      <point x="566" y="350" type="curve" smooth="yes"/>
      <point x="566" y="564"/>
      <point x="458" y="711"/>
    </contour>
    <contour>
      <point x="300" y="73" type="curve" smooth="yes"/>
      <point x="190" y="73"/>
      <point x="131" y="185"/>
      <point x="131" y="350" type="curve" smooth="yes"/>
      <point x="131" y="515"/>
      <point x="190" y="626"/>
      <point x="300" y="626" type="curve" smooth="yes"/>
      <point x="410" y="626"/>
      <point x="469" y="515"/>
      <point x="469" y="350" type="curve" smooth="yes"/>
      <point x="469" y="185"/>
      <point x="410" y="73"/>
    </contour>
  </outline>
</glyph>
<glyph name="R" format="2">
  <advance width="600"/>
  <unicode hex="0052"/>
  <outline>
    <contour>
      <point x="85" y="700" type="line"/>
      <point x="85" y="0" type="line"/>
      <point x="180" y="0" type="line"/>
      <point x="180" y="700" type="line"/>
    </contour>
    <contour>
      <point x="319" y="376" type="curve" smooth="yes"/>
      <point x="132" y="376" type="line"/>
      <point x="132" y="293" type="line"/>
      <point x="319" y="293" type="line" smooth="yes"/>
      <point x="458" y="293"/>
      <point x="542" y="377"/>
      <point x="542" y="496" type="curve" smooth="yes"/>
      <point x="542" y="614"/>
      <point x="456" y="700"/>
      <point x="322" y="700" type="curve" smooth="yes"/>
      <point x="137" y="700" type="line"/>
      <point x="137" y="614" type="line"/>
      <point x="319" y="614" type="line" smooth="yes"/>
      <point x="396" y="614"/>
      <point x="445" y="573"/>
      <point x="445" y="495" type="curve" smooth="yes"/>
      <point x="445" y="418"/>
      <point x="396" y="376"/>
    </contour>
    <contour>
      <point x="244" y="324" type="line"/>
      <point x="301" y="230"/>
      <point x="400" y="79"/>
      <point x="469" y="0" type="curve"/>
      <point x="575" y="0" type="line"/>
      <point x="575" y="7" type="line"/>
      <point x="508" y="82"/>
      <point x="407" y="231"/>
      <point x="349" y="324" type="curve"/>
    </contour>
  </outline>
</glyph>
<glyph name="T" format="2">
  <advance width="600"/>
  <unicode hex="0054"/>
  <outline>
    <contour>
      <point x="252" y="671" type="line"/>
      <point x="347" y="671" type="line"/>
      <point x="347" y="0" type="line"/>
      <point x="252" y="0" type="line"/>
    </contour>
    <contour>
      <point x="45" y="616" type="line"/>
      <point x="45" y="700" type="line"/>
      <point x="554" y="700" type="line"/>
      <point x="554" y="616" type="line"/>
    </contour>
  </outline>
</glyph>
<glyph name="U" format="2">
  <advance width="600"/>
  <unicode hex="0055"/>
  <outline>
    <contour>
      <point x="520" y="700" type="line"/>
      <point x="426" y="700" type="line"/>
      <point x="426" y="228" type="line" smooth="yes"/>
      <point x="426.0" y="138.0"/>
      <point x="389" y="77"/>
      <point x="301" y="77" type="curve" smooth="yes"/>
      <point x="213" y="77"/>
      <point x="175.0" y="138.0"/>
      <point x="175" y="228" type="curve" smooth="yes"/>
      <point x="175" y="700" type="line"/>
      <point x="80" y="700" type="line"/>
      <point x="80" y="218" type="line" smooth="yes"/>
      <point x="80.0" y="82.0"/>
      <point x="163" y="-12"/>
      <point x="301" y="-12" type="curve" smooth="yes"/>
      <point x="439" y="-12"/>
      <point x="520.0" y="82.0"/>
      <point x="520" y="218" type="curve" smooth="yes"/>
    </contour>
  </outline>
</glyph>
<glyph name="V" format="2">
  <advance width="680"/>
  <unicode hex="0056"/>
  <outline>
    <contour>
      <point x="520" y="700" type="line"/>
      <point x="317" y="60" type="line"/>
      <point x="363" y="60" type="line"/>
      <point x="159" y="700" type="line"/>
      <point x="63" y="700" type="line"/>
      <point x="293" y="0" type="line"/>
      <point x="388" y="0" type="line"/>
      <point x="617" y="700" type="line"/>
    </contour>
  </outline>
</glyph>
<glyph name="W" format="2">
  <advance width="600"/>
  <unicode hex="0057"/>
  <outline>
    <contour>
      <point x="487" y="0" type="line"/>
      <point x="563" y="700" type="line"/>
      <point x="470" y="700" type="line"/>
      <point x="411" y="36" type="line"/>
      <point x="460" y="36" type="line"/>
      <point x="348" y="530" type="line"/>
      <point x="253" y="530" type="line"/>
      <point x="143" y="36" type="line"/>
      <point x="193" y="36" type="line"/>
      <point x="130" y="700" type="line"/>
      <point x="37" y="700" type="line"/>
      <point x="114" y="0" type="line"/>
      <point x="212" y="0" type="line"/>
      <point x="318" y="477" type="line"/>
      <point x="282" y="477" type="line"/>
      <point x="389" y="0" type="line"/>
    </contour>
  </outline>
</glyph>
<glyph name="Y" format="2">
  <advance width="600"/>
  <unicode hex="0059"/>
  <outline>
    <contour>
      <point x="326" y="392" type="line"/>
      <point x="130" y="700" type="line"/>
      <point x="25" y="700" type="line"/>
      <point x="252" y="344" type="line"/>
      <point x="252" y="0" type="line"/>
      <point x="347" y="0" type="line"/>
      <point x="347" y="344" type="line"/>
      <point x="575" y="700" type="line"/>
      <point x="472" y="700" type="line"/>
      <point x="275" y="392" type="line"/>
    </contour>
  </outline>
</glyph>
<glyph name="c" format="2">
  <advance width="600"/>
  <unicode hex="0063"/>
  <outline>
    <contour>
      <point x="543" y="356" type="line"/>
      <point x="511" y="467"/>
      <point x="425" y="532"/>
      <point x="313" y="532" type="curve" smooth="yes"/>
      <point x="171" y="532"/>
      <point x="59" y="429"/>
      <point x="59" y="260" type="curve" smooth="yes"/>
      <point x="59" y="91"/>
      <point x="171" y="-12"/>
      <point x="313" y="-12" type="curve" smooth="yes"/>
      <point x="425" y="-12"/>
      <point x="514" y="54"/>
      <point x="545" y="166" type="curve"/>
      <point x="472" y="186" type="line"/>
      <point x="448" y="104"/>
      <point x="392" y="60"/>
      <point x="313" y="60" type="curve" smooth="yes"/>
      <point x="212" y="60"/>
      <point x="145" y="133"/>
      <point x="145" y="260" type="curve" smooth="yes"/>
      <point x="145" y="387"/>
      <point x="212" y="460"/>
      <point x="313" y="460" type="curve" smooth="yes"/>
      <point x="391" y="460"/>
      <point x="444" y="416"/>
      <point x="470" y="335" type="curve"/>
    </contour>
  </outline>
</glyph>
<glyph name="m" format="2">
  <advance width="600"/>
  <unicode hex="006D"/>
  <outline>
    <contour>
      <point x="307" y="389" type="line"/>
      <point x="342" y="389" type="line"/>
      <point x="342.0" y="433.0"/>
      <point x="372" y="464"/>
      <point x="414" y="464" type="curve" smooth="yes"/>
      <point x="454" y="464"/>
      <point x="472" y="433"/>
      <point x="472" y="398" type="curve" smooth="yes"/>
      <point x="472" y="0" type="line"/>
      <point x="554" y="0" type="line"/>
      <point x="554" y="409" type="line" smooth="yes"/>
      <point x="554" y="469"/>
      <point x="523" y="532"/>
      <point x="451" y="532" type="curve" smooth="yes"/>
      <point x="400" y="532"/>
      <point x="361" y="498"/>
      <point x="325" y="431" type="curve"/>
      <point x="307" y="431" type="line"/>
    </contour>
    <contour>
      <point x="48" y="520" type="line"/>
      <point x="48" y="0" type="line"/>
      <point x="130" y="0" type="line"/>
      <point x="130" y="389" type="line" smooth="yes"/>
      <point x="130.0" y="433.0"/>
      <point x="160" y="464"/>
      <point x="202" y="464" type="curve" smooth="yes"/>
      <point x="242" y="464"/>
      <point x="260" y="433"/>
      <point x="260" y="398" type="curve" smooth="yes"/>
      <point x="260" y="0" type="line"/>
      <point x="342" y="0" type="line"/>
      <point x="342" y="409" type="line" smooth="yes"/>
      <point x="342" y="469"/>
      <point x="311" y="532"/>
      <point x="239" y="532" type="curve" smooth="yes"/>
      <point x="188" y="532"/>
      <point x="149" y="498"/>
      <point x="113" y="431" type="curve"/>
      <point x="130" y="431" type="line"/>
      <point x="130" y="520" type="line"/>
    </contour>
  </outline>
</glyph>
<glyph name="r" format="2">
  <advance width="600"/>
  <unicode hex="0072"/>
  <outline>
    <contour>
      <point x="120" y="520" type="line"/>
      <point x="120" y="0" type="line"/>
      <point x="205" y="0" type="line"/>
      <point x="205" y="315" type="line" smooth="yes"/>
      <point x="205" y="383.0"/>
      <point x="268" y="459"/>
      <point x="354" y="459" type="curve" smooth="yes"/>
      <point x="419" y="459"/>
      <point x="467" y="424"/>
      <point x="469" y="355" type="curve"/>
      <point x="555" y="355" type="line"/>
      <point x="553" y="465"/>
      <point x="483" y="532"/>
      <point x="391" y="532" type="curve" smooth="yes"/>
      <point x="300" y="532"/>
      <point x="216" y="467"/>
      <point x="189" y="397" type="curve"/>
      <point x="205" y="397" type="line"/>
      <point x="205" y="520" type="line"/>
    </contour>
  </outline>
</glyph>
<glyph name="emdash" format="2">
  <advance width="600"/>
  <unicode hex="2014"/>
  <outline>
    <contour>
      <point x="37" y="260" type="line"/>
      <point x="564" y="260" type="line"/>
      <point x="564" y="332" type="line"/>
      <point x="37" y="332" type="line"/>
    </contour>
  </outline>
</glyph>
<glyph name="f_l" format="2">
  <advance width="540"/>
  <outline>
    <contour>
      <point x="20" y="454" type="line"/>
      <point x="298" y="454" type="line"/>
      <point x="298" y="520" type="line"/>
      <point x="20" y="520" type="line"/>
    </contour>
    <contour>
      <point x="259" y="712" type="curve" smooth="yes"/>
      <point x="162" y="712"/>
      <point x="98" y="644"/>
      <point x="98" y="539" type="curve" smooth="yes"/>
      <point x="98" y="0" type="line"/>
      <point x="183" y="0" type="line"/>
      <point x="183" y="539" type="line" smooth="yes"/>
      <point x="183" y="612"/>
      <point x="219" y="643"/>
      <point x="269" y="643" type="curve" smooth="yes"/>
      <point x="288" y="643"/>
      <point x="307" y="638"/>
      <point x="318" y="635" type="curve"/>
      <point x="318" y="701" type="line"/>
      <point x="306" y="705"/>
      <point x="286" y="712"/>
    </contour>
    <contour>
      <point x="377" y="700" type="line"/>
      <point x="377" y="0" type="line"/>
      <point x="462" y="0" type="line"/>
      <point x="462" y="700" type="line"/>
    </contour>
  </outline>
</glyph>
